<svg width="17" height="17" viewBox="0 0 17 17" fill="none" xmlns="http://www.w3.org/2000/svg">
<path d="M8.5 16L1 5.52586L3.97414 1H13.0259L16 5.52586L8.5 16Z" stroke="#64FFDA"/>
<path d="M5.125 9.1315V10.0213H7.93402V9.1315L7.6495 9.12901L7.52238 9.12206L7.39526 9.0883L7.29198 9.00438L7.26814 8.95919V8.87726V6.84336H8.59494L8.66645 6.97048L8.73298 7.0976L8.80201 7.22472L8.87003 7.35183L8.92068 7.44519L8.93856 7.47895L9.00659 7.60607L9.0478 7.68155L9.07511 7.73319L9.14314 7.86031L9.17492 7.9194L9.21167 7.98743L9.2787 8.11455L9.30204 8.15427L9.34872 8.24167L9.41575 8.36878L9.42916 8.39212L9.48477 8.4959L9.5533 8.62302L9.61984 8.75014L9.69233 8.87726L9.75788 9.00438L9.82591 9.1315H9.23848V10.0213H11.9144V9.1315H11.5902L11.4631 9.12554L11.3359 9.10568L11.2088 9.06794L11.0921 9.00438L11.0817 8.99445L10.9675 8.87726L10.9546 8.86336L10.8816 8.75014L10.8146 8.62302L10.7465 8.4959L10.7003 8.41099L10.6785 8.36878L10.6085 8.24167L10.5732 8.17811L10.5414 8.11455L10.4739 7.98743L10.4461 7.93777L10.4049 7.86031L10.3379 7.73319L10.319 7.70042L10.2678 7.60607L10.1993 7.47895L10.1919 7.46356L10.1318 7.35183L10.0618 7.22472L9.99523 7.0976L9.92621 6.97048L9.81051 6.7371L9.93763 6.70979L10.0648 6.6795L10.1919 6.64126L10.319 6.59657L10.3393 6.58912L10.4461 6.54344L10.5732 6.48485L10.613 6.462L10.7003 6.41285L10.8275 6.32893L10.9546 6.23408L10.9819 6.20777L11.0817 6.11739L11.1189 6.08065L11.2088 5.98283L11.2317 5.95353L11.326 5.82641L11.3359 5.813L11.4064 5.69929L11.4631 5.59899L11.4765 5.57217L11.5341 5.44506L11.5817 5.31794L11.5902 5.29361L11.6215 5.19082L11.6537 5.0637L11.6781 4.93658L11.6969 4.80946L11.7089 4.68234L11.7173 4.55522V4.42811L11.7148 4.30099L11.7084 4.17387L11.6954 4.04675L11.6756 3.91963L11.6508 3.79251L11.6175 3.66539L11.5902 3.57999L11.5773 3.53828L11.5266 3.41116L11.468 3.28404L11.4631 3.2756L11.3935 3.15692L11.3359 3.06754L11.3076 3.0298L11.2029 2.90268L11.0817 2.77904L10.9546 2.66781L10.9307 2.64845L10.8275 2.57396L10.7465 2.52133L10.7003 2.49302L10.5732 2.42301L10.5146 2.39421L10.4461 2.36342L10.319 2.31426L10.1919 2.27106L10.1834 2.26709L10.0648 2.23452L9.93763 2.20353L9.81051 2.18028L9.6834 2.16046L9.55628 2.14638L9.42916 2.13491L9.30204 2.125H5.36136H5.12885V2.64845V2.77556V2.90268V3.0298H5.48848L5.6156 3.04028L5.74272 3.07887L5.84281 3.15692L5.86984 3.191L5.91061 3.28404L5.9334 3.41116V3.53828V3.66539V3.79251V3.91963V4.04675V4.17387V4.30099V4.42811V4.55523V4.68234V4.80946V4.93658V5.0637V5.19082V5.31794V5.44506V5.57217V5.69929V5.82641V5.95353V6.08065V6.20777V6.33489V6.46201V6.58912V6.71624V6.84336V6.97048V7.0976L5.9346 7.22472L5.9334 7.35183V7.47895V7.60607V7.73319V7.86031V7.98743V8.11455V8.24167V8.36878V8.4959V8.62302V8.75014L5.90696 8.87726L5.86984 8.96375L5.84069 9.00438L5.74272 9.0785L5.6156 9.11223L5.48848 9.1315H5.36136H5.125Z" fill="#64FFDA"/>
<path d="M9.06547 5.93856H7.24574L7.24438 3.01483H9.06547L9.19259 3.02465L9.31971 3.03554L9.44683 3.05322L9.57394 3.07839L9.70106 3.11717L9.76462 3.14195L9.82818 3.16343L9.9553 3.23147L10.0189 3.26907L10.0824 3.32127L10.1711 3.39619L10.2095 3.44917L10.2636 3.52331L10.3367 3.65042L10.3902 3.77754L10.4242 3.90466L10.4514 4.03178L10.4638 4.1589L10.4772 4.28602V4.41314V4.54025L10.4638 4.66737L10.4514 4.79449L10.4242 4.92161L10.3874 5.04873L10.3439 5.17585L10.2731 5.30297L10.1956 5.43009L10.0824 5.5572L9.9553 5.66427L9.93571 5.68432L9.82818 5.74788L9.70106 5.81144L9.57394 5.85476L9.44683 5.89285L9.31971 5.91326L9.19259 5.92823L9.06547 5.93856Z" fill="#0A192F"/>
</svg>
