<?xml version="1.0" standalone="no"?>
<svg id="Frame2" width="317" height="302" viewBox="0 0 317 302" fill="none" xmlns="http://www.w3.org/2000/svg" style="max-width: 100%; max-height: 100%;">
<rect width="317" height="302" fill="#0A192F" stroke-dasharray="0,0,0,1238"><animate attributeType="XML" attributeName="stroke-dasharray" repeatCount="1" dur="1.7857142857142858s" values="0,0,0,1238; 
          0,619,619,0; 
          1238,0,0,0" keyTimes="0; 0.5; 1" fill="freeze"></animate></rect>
<path d="M147 244L47 104.345L86.6552 44H207.345L247 104.345L147 244Z" stroke="#64FFDA" stroke-dasharray="0,0,0,608.6382446289062"><animate attributeType="XML" attributeName="stroke-dasharray" repeatCount="1" dur="1.7857142857142858s" values="0,0,0,608.6382446289062; 
          0,304.3191223144531,304.3191223144531,0; 
          608.6382446289062,0,0,0" keyTimes="0; 0.5; 1" fill="freeze"></animate></path>
<path d="M102 152.42V164.284H139.454V152.42L135.66 152.387L133.965 152.294L132.27 151.844L130.893 150.725L130.575 150.123V149.03V121.911H148.266L149.219 123.606L150.106 125.301L151.027 126.996L151.934 128.691L152.609 129.936L152.847 130.386L153.755 132.081L154.304 133.087L154.668 133.776L155.575 135.471L155.999 136.259L156.489 137.166L157.383 138.861L157.694 139.39L158.316 140.556L159.21 142.25L159.389 142.562L160.13 143.945L161.044 145.64L161.931 147.335L162.898 149.03L163.772 150.725L164.679 152.42H156.846V164.284H192.526V152.42H188.202L186.507 152.34L184.813 152.076L183.118 151.572L181.562 150.725L181.423 150.593L179.9 149.03L179.728 148.845L178.755 147.335L177.861 145.64L176.954 143.945L176.338 142.813L176.047 142.25L175.113 140.556L174.643 139.708L174.219 138.861L173.319 137.166L172.948 136.504L172.399 135.471L171.505 133.776L171.253 133.339L170.571 132.081L169.658 130.386L169.558 130.181L168.757 128.691L167.824 126.996L166.936 125.301L166.016 123.606L164.474 120.495L166.168 120.13L167.863 119.727L169.558 119.217L171.253 118.621L171.525 118.522L172.948 117.913L174.643 117.131L175.173 116.827L176.338 116.171L178.033 115.052L179.728 113.788L180.092 113.437L181.423 112.232L181.919 111.742L183.118 110.438L183.422 110.047L184.68 108.352L184.813 108.173L185.753 106.657L186.507 105.32L186.686 104.962L187.454 103.267L188.09 101.572L188.202 101.248L188.619 99.8776L189.05 98.1827L189.374 96.4877L189.626 94.7928L189.785 93.0979L189.897 91.403V89.7081L189.864 88.0132L189.778 86.3183L189.606 84.6233L189.341 82.9284L189.01 81.2335L188.566 79.5386L188.202 78.3998L188.03 77.8437L187.355 76.1488L186.574 74.4538L186.507 74.3413L185.581 72.7589L184.813 71.5672L184.435 71.064L183.038 69.3691L181.423 67.7205L179.728 66.2375L179.41 65.9793L178.033 64.9862L176.954 64.2844L176.338 63.907L174.643 62.9734L173.862 62.5894L172.948 62.1789L171.253 61.5235L169.558 60.9475L169.446 60.8945L167.863 60.4603L166.168 60.0471L164.474 59.7371L162.779 59.4728L161.084 59.2851L159.389 59.1321L157.694 59H105.151H102.051V65.9793V67.6742V69.3691V71.064H106.846L108.541 71.2037L110.236 71.7182L111.571 72.7589L111.931 73.2133L112.475 74.4539L112.779 76.1488V77.8437V79.5386V81.2335V82.9284V84.6233V86.3183V88.0132V89.7081V91.403V93.0979V94.7928V96.4878V98.1827V99.8776V101.573V103.267V104.962V106.657V108.352V110.047V111.742V113.437V115.132V116.827V118.522V120.217V121.911V123.606V125.301L112.795 126.996L112.779 128.691V130.386V132.081V133.776V135.471V137.166V138.861V140.556V142.25V143.945V145.64V147.335L112.426 149.03L111.931 150.183L111.543 150.725L110.236 151.713L108.541 152.163L106.846 152.42H105.151H102Z" fill="#64FFDA" stroke-dasharray="0,0,0,524.8927001953125"><animate attributeType="XML" attributeName="stroke-dasharray" repeatCount="1" dur="1.7857142857142858s" values="0,0,0,524.8927001953125; 
          0,262.44635009765625,262.44635009765625,0; 
          524.8927001953125,0,0,0" keyTimes="0; 0.5; 1" fill="freeze"></animate></path>
<path d="M154.54 109.847H130.277L130.259 70.8645H154.54L156.235 70.9954L157.93 71.1405L159.625 71.3764L161.32 71.7119L163.015 72.229L163.862 72.5594L164.71 72.8458L166.405 73.7529L167.252 74.2543L168.1 74.9503L169.282 75.9492L169.795 76.6556L170.516 77.6441L171.49 79.339L172.203 81.034L172.656 82.7289L173.019 84.4238L173.184 86.1187L173.364 87.8136V89.5085V91.2034L173.184 92.8984L173.019 94.5933L172.656 96.2882L172.167 97.9831L171.586 99.678L170.642 101.373L169.609 103.068L168.1 104.763L166.405 106.19L166.144 106.458L164.71 107.305L163.015 108.153L161.32 108.73L159.625 109.238L157.93 109.51L156.235 109.71L154.54 109.847Z" fill="#0A192F" stroke-dasharray="0,0,0,149.3953094482422"><animate attributeType="XML" attributeName="stroke-dasharray" repeatCount="1" dur="1.7857142857142858s" values="0,0,0,149.3953094482422; 
          0,74.6976547241211,74.6976547241211,0; 
          149.3953094482422,0,0,0" keyTimes="0; 0.5; 1" fill="freeze"></animate></path>
<setting>{"type":"direct","speed":28,"random":1,"shift":1,"size":1,"rupture":50}</setting></svg>