<?xml version="1.0" standalone="no"?>
<svg id="Group43" width="202" height="202" viewBox="0 0 202 202" fill="none" xmlns="http://www.w3.org/2000/svg" style="max-width: 100%; max-height: 100%;">
<path d="M101 201L1 61.3448L40.6552 1H161.345L201 61.3448L101 201Z" stroke="#64FFDA" stroke-dasharray="0,0,0,608.6383056640625"><animate attributeType="XML" attributeName="stroke-dasharray" repeatCount="1" dur="2.5s" values="0,0,0,608.6383056640625; 
          0,304.31915283203125,304.31915283203125,0; 
          608.6383056640625,0,0,0" keyTimes="0; 0.5; 1" fill="freeze"></animate></path>
<path d="M56 109.42V121.284H93.4537V109.42L89.66 109.387L87.965 109.294L86.2701 108.844L84.893 107.725L84.5752 107.123V106.03V78.9115H102.266L103.219 80.6064L104.106 82.3013L105.027 83.9962L105.934 85.6911L106.609 86.9358L106.847 87.386L107.755 89.081L108.304 90.0873L108.668 90.7759L109.575 92.4708L109.999 93.2587L110.489 94.1657L111.383 95.8606L111.694 96.3903L112.316 97.5555L113.21 99.2505L113.389 99.5616L114.13 100.945L115.044 102.64L115.931 104.335L116.898 106.03L117.772 107.725L118.679 109.42H110.846V121.284H146.526V109.42H142.202L140.507 109.34L138.813 109.076L137.118 108.572L135.562 107.725L135.423 107.593L133.9 106.03L133.728 105.845L132.755 104.335L131.861 102.64L130.954 100.945L130.338 99.8132L130.047 99.2505L129.113 97.5555L128.643 96.7081L128.219 95.8606L127.319 94.1657L126.948 93.5036L126.399 92.4708L125.505 90.7759L125.253 90.3389L124.571 89.081L123.658 87.386L123.558 87.1808L122.757 85.6911L121.824 83.9962L120.936 82.3013L120.016 80.6064L118.474 77.4946L120.168 77.1305L121.863 76.7266L123.558 76.2168L125.253 75.621L125.525 75.5216L126.948 74.9125L128.643 74.1313L129.173 73.8267L130.338 73.1713L132.033 72.0524L133.728 70.7878L134.092 70.4369L135.423 69.2319L135.919 68.742L137.118 67.4377L137.422 67.0471L138.68 65.3521L138.813 65.1734L139.753 63.6572L140.507 62.3198L140.686 61.9623L141.454 60.2674L142.09 58.5725L142.202 58.2481L142.619 56.8776L143.05 55.1827L143.374 53.4877L143.626 51.7928L143.785 50.0979L143.897 48.403V46.7081L143.864 45.0132L143.778 43.3183L143.606 41.6233L143.341 39.9284L143.01 38.2335L142.566 36.5386L142.202 35.3998L142.03 34.8437L141.355 33.1488L140.574 31.4538L140.507 31.3413L139.581 29.7589L138.813 28.5672L138.435 28.064L137.038 26.3691L135.423 24.7205L133.728 23.2375L133.41 22.9793L132.033 21.9862L130.954 21.2844L130.338 20.907L128.643 19.9734L127.862 19.5894L126.948 19.1789L125.253 18.5235L123.558 17.9475L123.446 17.8945L121.863 17.4603L120.168 17.0471L118.474 16.7371L116.779 16.4728L115.084 16.2851L113.389 16.1321L111.694 16H59.1515H56.0513V22.9793V24.6742V26.3691V28.064H60.8464L62.5413 28.2037L64.2362 28.7182L65.5709 29.7589L65.9311 30.2133L66.4748 31.4539L66.7786 33.1488V34.8437V36.5386V38.2335V39.9284V41.6233V43.3183V45.0132V46.7081V48.403V50.0979V51.7928V53.4878V55.1827V56.8776V58.5725V60.2674V61.9623V63.6572V65.3522V67.0471V68.742V70.4369V72.1318V73.8267V75.5217V77.2166V78.9115V80.6064V82.3013L66.7947 83.9962L66.7786 85.6911V87.386V89.081V90.7759V92.4708V94.1657V95.8606V97.5555V99.2505V100.945V102.64V104.335L66.4262 106.03L65.9311 107.183L65.5426 107.725L64.2362 108.713L62.5413 109.163L60.8464 109.42H59.1515H56Z" fill="#64FFDA" stroke-dasharray="0,0,0,524.8900146484375"><animate attributeType="XML" attributeName="stroke-dasharray" repeatCount="1" dur="2.5s" values="0,0,0,524.8900146484375; 
          0,262.44500732421875,262.44500732421875,0; 
          524.8900146484375,0,0,0" keyTimes="0; 0.5; 1" fill="freeze"></animate></path>
<path d="M108.54 66.8475H84.2774L84.2593 27.8645H108.54L110.235 27.9954L111.93 28.1405L113.625 28.3764L115.32 28.7119L117.015 29.229L117.862 29.5594L118.71 29.8458L120.405 30.7529L121.252 31.2543L122.1 31.9503L123.282 32.9492L123.795 33.6556L124.516 34.6441L125.49 36.339L126.203 38.034L126.656 39.7289L127.019 41.4238L127.184 43.1187L127.364 44.8136V46.5085V48.2034L127.184 49.8984L127.019 51.5933L126.656 53.2882L126.167 54.9831L125.586 56.678L124.642 58.3729L123.609 60.0679L122.1 61.7628L120.405 63.1903L120.144 63.4577L118.71 64.3051L117.015 65.1526L115.32 65.7302L113.625 66.2381L111.93 66.5102L110.235 66.7098L108.54 66.8475Z" fill="#0A192F" stroke-dasharray="0,0,0,149.39501953125"><animate attributeType="XML" attributeName="stroke-dasharray" repeatCount="1" dur="2.5s" values="0,0,0,149.39501953125; 
          0,74.697509765625,74.697509765625,0; 
          149.39501953125,0,0,0" keyTimes="0; 0.5; 1" fill="freeze"></animate></path>
<setting>{"type":"direct","speed":20,"random":1,"shift":1,"size":1,"rupture":50}</setting></svg>