<svg width="32" height="32" viewBox="0 0 32 32" fill="none" xmlns="http://www.w3.org/2000/svg">
<path d="M16 31L1 10.0517L6.94828 1H25.0517L31 10.0517L16 31Z" stroke="#64FFDA"/>
<path d="M9.25 17.263V19.0427H14.868V17.263L14.299 17.258L14.0448 17.2441L13.7905 17.1766L13.584 17.0088L13.5363 16.9184V16.7545V12.6867H16.1899L16.3329 12.941L16.466 13.1952L16.604 13.4494L16.7401 13.7037L16.8414 13.8904L16.8771 13.9579L17.0132 14.2121L17.0956 14.3631L17.1502 14.4664L17.2863 14.7206L17.3498 14.8388L17.4233 14.9749L17.5574 15.2291L17.6041 15.3085L17.6974 15.4833L17.8315 15.7376L17.8583 15.7842L17.9695 15.9918L18.1066 16.246L18.2397 16.5003L18.3847 16.7545L18.5158 17.0088L18.6518 17.263H17.477V19.0427H22.8289V17.263H22.1804L21.9261 17.2511L21.6719 17.2114L21.4176 17.1359L21.1843 17.0088L21.1634 16.9889L20.935 16.7545L20.9092 16.7267L20.7632 16.5003L20.6291 16.246L20.493 15.9918L20.4007 15.822L20.357 15.7376L20.217 15.4833L20.1465 15.3562L20.0829 15.2291L19.9478 14.9749L19.8922 14.8755L19.8098 14.7206L19.6757 14.4664L19.638 14.4008L19.5357 14.2121L19.3986 13.9579L19.3837 13.9271L19.2636 13.7037L19.1235 13.4494L18.9905 13.1952L18.8524 12.941L18.621 12.4742L18.8753 12.4196L19.1295 12.359L19.3837 12.2825L19.638 12.1931L19.6787 12.1782L19.8922 12.0869L20.1465 11.9697L20.2259 11.924L20.4007 11.8257L20.6549 11.6579L20.9092 11.4682L20.9638 11.4155L21.1634 11.2348L21.2379 11.1613L21.4176 10.9657L21.4633 10.9071L21.652 10.6528L21.6719 10.626L21.8129 10.3986L21.9261 10.198L21.9529 10.1443L22.0681 9.89011L22.1635 9.63587L22.1804 9.58721L22.2429 9.38164L22.3075 9.1274L22.3561 8.87316L22.3939 8.61892L22.4177 8.36469L22.4346 8.11045V7.85621L22.4296 7.60197L22.4167 7.34774L22.3909 7.0935L22.3512 6.83926L22.3015 6.58503L22.235 6.33079L22.1804 6.15997L22.1545 6.07655L22.0532 5.82231L21.936 5.56808L21.9261 5.55119L21.7871 5.31384L21.6719 5.13508L21.6153 5.0596L21.4057 4.80536L21.1634 4.55808L20.9092 4.33562L20.8615 4.29689L20.6549 4.14792L20.493 4.04265L20.4007 3.98605L20.1465 3.84602L20.0293 3.78842L19.8922 3.72684L19.638 3.62852L19.3837 3.54212L19.3669 3.53418L19.1295 3.46904L18.8753 3.40706L18.621 3.36056L18.3668 3.32092L18.1126 3.29276L17.8583 3.26982L17.6041 3.25H9.72272H9.25769V4.29689V4.55113V4.80537V5.0596H9.97696L10.2312 5.08055L10.4854 5.15774L10.6856 5.31384L10.7397 5.38199L10.8212 5.56808L10.8668 5.82232V6.07655V6.33079V6.58503V6.83926V7.0935V7.34774V7.60198V7.85621V8.11045V8.36469V8.61893V8.87316V9.1274V9.38164V9.63588V9.89011V10.1443V10.3986V10.6528V10.9071V11.1613V11.4155V11.6698V11.924V12.1782V12.4325V12.6867V12.941V13.1952L10.8692 13.4494L10.8668 13.7037V13.9579V14.2121V14.4664V14.7206V14.9749V15.2291V15.4833V15.7376V15.9918V16.246V16.5003L10.8139 16.7545L10.7397 16.9275L10.6814 17.0088L10.4854 17.157L10.2312 17.2245L9.97696 17.263H9.72272H9.25Z" fill="#64FFDA"/>
<path d="M17.1309 10.8771H13.4915L13.4888 5.02966H17.1309L17.3852 5.0493L17.6394 5.07107L17.8937 5.10644L18.1479 5.15678L18.4021 5.23434L18.5292 5.2839L18.6564 5.32687L18.9106 5.46293L19.0377 5.53814L19.1648 5.64253L19.3422 5.79237L19.4191 5.89833L19.5272 6.04661L19.6733 6.30085L19.7803 6.55509L19.8484 6.80932L19.9028 7.06356L19.9276 7.3178L19.9545 7.57204V7.82627V8.08051L19.9276 8.33475L19.9028 8.58898L19.8484 8.84322L19.7749 9.09746L19.6878 9.3517L19.5462 9.60593L19.3912 9.86017L19.1648 10.1144L18.9106 10.3285L18.8714 10.3686L18.6564 10.4958L18.4021 10.6229L18.1479 10.7095L17.8937 10.7857L17.6394 10.8265L17.3852 10.8565L17.1309 10.8771Z" fill="#0A192F"/>
</svg>
